<?xml version="1.0" encoding="utf-8"?>
<!-- Generator: Adobe Illustrator 22.0.0, SVG Export Plug-In . SVG Version: 6.00 Build 0)  -->
<svg version="1.1" id="Layer_1" xmlns="http://www.w3.org/2000/svg" xmlns:xlink="http://www.w3.org/1999/xlink" x="0px" y="0px"
	 viewBox="0 0 325.8 171.2" style="enable-background:new 0 0 325.8 171.2;" xml:space="preserve">
<style type="text/css">
	.st0{fill:#D0B23B;stroke:#AA7C00;stroke-width:2.5;stroke-miterlimit:10;}
</style>
<g>
	<path class="st0" d="M180.1,117.4c-2.9-4.2-1.1-10.4,1-14.6c4.2-8.3,7.1-13.2,7.1-13.2s-4.3,1.3-7.1,3.1c-2.1,1.3-4.5,3.1-7.7,7.4
		c-4,5.2-6.7,11.1-11.1,15.9c-2.7,3-7.5,4.9-10.7,2.2c-3.7-3,0.6-6.8,1.6-9.8c0.3-0.8,0.9-1.6,1.5-2.6c-8.6,5.9-15.9,13.3-26.4,14.6
		c-6.4,0.8-13.1,0.1-17.7-5.2c-3.6-4.1-4.3-9.1-2-14.2s5.5-8.1,11.5-7.9c2.3,0.1,4.5,0.9,5.2,3.3c0.6,1.8-0.7,3.1-2,4
		c-1.9,1.3-3.6,0.8-5.6-0.2c-0.4-0.2-1.2-1-1.2-1s-5.1,5.1-4.3,9.1c0.8,4.1,3.6,6.3,7.5,6.7c4.1,0.4,7.3-2,9.8-5
		c7.3-8.6,1.7-16.5-2-24.1c-0.9-1.9-1.7-3.7-1.7-6.2c0-3.6,1.7-6.3,2.2-7.1c2.6-3.9,6.6-5.7,8.5-6.5c0.2-0.1,5.8-2.3,11.1-1.6
		c2.8,0.3,6.3,0.8,8.9,3.6c3.1,3.3,2.9,7.6,2.8,8.6c-0.4,4-2.7,6.6-3.5,7.4c-0.1-2-0.4-4.9-1.4-7.8c-0.7-1.9-1.4-3.1-2.5-4
		c-0.3-0.2-0.8-0.6-1.5-1c-2.6-1.3-5.3-0.7-6.2-0.5c-0.6,0.2-5.2,1.3-6.5,4.9c-0.7,1.9-0.3,3.6,0.3,5.4c0.8,2.3,2.2,4.3,3.3,6.5
		c1,1.9,1.9,3.9,2.5,5.9c0.7,2.1,1.4,3.7,1.5,5.9c0.1,1.2-0.2,3-0.7,4.1c-0.8,2-1.2,3.2-1.2,3.2s7.9-4.8,10.8-7
		c10.6-8,16-19.7,22.6-30.5C187,52.6,195.2,34.8,209,20.6c4-4.1,9.3-5.6,15.1-4.2c2.6,0.6,5.9,3.7,6.3,5.9
		c1.2,8.1-3.1,14.9-8.3,21.2c-1.5,1.8-3.1,3.5-4.8,5.1c-8.1,7.9-16.7,15-25.1,22.6c-1.7,1.5-7.6,9.2-7.6,9.2s3.2-0.9,4.4-1.3
		c2.4-0.8,3.6-1,6.2-1.4c2.2-0.4,4.4-0.2,6,1.6c3.2,3.4,0.3,7.9-1.6,11.1c-2.2,3.6-4.2,7.3-6.1,11c-0.9,1.6-4.9,10.9-2.7,11.5
		c2.6,0.7,5.5-1.7,7.5-3.3c0.5-0.4,4.8-4,5.1-4.5c1.1-2.1,2.4-6,3.6-8c1.7-2.9,3.5-5.8,5.5-8.5c2.2-3,4.5-5.9,7.2-8.5
		c2.5-2.5,5.3-4.7,8.5-6.3c2.9-1.4,6.1-2.3,9.4-1.9c0.7,0.1,1.6,0.2,2.3,0.4c3,0.8,5.1,3.6,5.9,6.4c0.2,0.6,0.3,1.1,0.3,1.7
		c0,1.5-0.6,2.9-1.4,4.1c-0.8,1.3-1.5,2.6-2.5,3.7c-1,1.1-2,2.3-3.1,3.4c-2.1,2.1-4.5,4.1-7.1,5.7c-2.6,1.5-5.4,2.6-8.4,2.9
		c-2.6,0.3-5.3-0.1-7.9-0.4c0,0-2.5,4.8-3.1,6.8c-1,3.5-2,5.4,1.9,8.1c2,1.4,5,1.2,7.2,0.1c4.8-2.6,9.6-5.3,13.8-8.7
		c2.1-1.7,4-3.1,5.9-5c1.8-1.9,3.5-4.6,5-6.7c1.6-2.1,3.1-4.3,4.5-6.6c0.7-1.1,6.8-10.9,9.3-11.8c1.9-0.7,3.5-0.8,5.5-1
		c1.5-0.1,3.5-0.2,4.7,0.8c1.7,1.4,0.5,3.3-0.4,4.8c-6.2,10.6-12.1,19.1-16.5,30.6c-0.4,1-0.7,2.3,0.1,3.1c0.9,0.8,2.4,0.3,3.5-0.4
		c14.1-8.6,19.3-22.8,28.1-35.9c1-1.4,5.4-2.7,9.7-2.8c2.1-0.1,5.5,0.2,6,0.9c0.6,0.6-0.6,3.4-1.1,4.2c-3.5,5.9-23.7,42.6-23.7,42.6
		s11.5-5.2,16.5-8.9c8.4-6.4,15.7-13.6,20.8-23c3-5.5-2.3-6.9-3.6-10.2c-1.2-3-1.7-5.7,0.5-8.3c2.1-2.4,5-2.4,7.3-1.4
		c2.8,1.2,4.2,4,4.2,7.2c-0.2,15.8-10.7,25.8-21.5,35.4c-7.6,6.7-16.2,11.9-25.8,15.9c-5.4,2.3-6.4,9.2-9.1,14.2
		c-4.3,7.7-8.4,15.6-16.3,20.4c-5.7,3.4-12,4.7-16.9-0.9c-4.4-5.1-0.8-14.4,5.9-19.2c9.5-6.8,17.9-12.7,21.5-17.4
		c1.9-2.5,3.9-5.1,3.9-5.1c1.2-1.7,2.2-3.1,2.9-4.2c-0.9,0.6-1.8,1.3-2.7,1.9c-1,0.7-2,1.3-3,1.9c-0.9,0.5-2.3,1.2-4.1,1.6
		c-3,0.6-5.3,0.1-7-0.1c-1.6-0.2-4.7-0.6-6.7-2.9c-0.7-0.7-1.1-1.6-1.5-2.5c-1.2-3.5-1-7.9-1-7.9s-3.4,2.4-4.4,3.1
		c-1.9,1.4-3.8,2.9-5.8,4.1c-3.8,2.4-8,4.4-12.6,4.6c-2.4,0.1-4.8-0.2-7.2-0.9c-1-0.3-2.4-0.8-3.7-2c-1.1-1.1-1.6-2.7-2.1-4.1
		c-0.2-0.6-0.4-1.2-0.5-1.8c-0.1-0.3-0.1-0.5-0.4-0.2c-0.5,0.4-0.9,0.8-1.3,1.3c-1.1,1.2-2.6,2.7-4.7,4.1c-1.9,1.3-4.3,2.9-7.8,3.3
		c-1.3,0.2-3.5,0.2-6.1-0.6C182.7,119.8,181.2,119,180.1,117.4z M220,25.2c-1.3,1-9.7,11.1-13.6,15.8c-1.7,2-6.8,7.8-10,12.2
		c-1.8,2.5-4.2,5.4-3.9,6c0.3,0.6,1.1,1,1.7,1c2.5,0.2,23.4-21.3,27.9-30.3C223.2,27.5,223.8,23.2,220,25.2z M219.3,92
		c0,0,1.7,0.3,1.8,0.3c1.2,0.1,2.3,0.1,3.5-0.3c2.4-0.7,4.5-2.1,6.3-3.7c1.9-1.8,3.5-3.9,5.1-6c0.9-1.3,2.4-3.5,1-5
		c-1.3-1.4-3.8,0.2-5,1c-1.7,1.1-2.5,1.9-4,3.2C224.6,84.5,221.4,88.1,219.3,92z M259.6,136.8c-1.6-1.6-23.2,13.7-21.1,20.1
		c0,0.1,0.7,2.1,2.2,2.5c1.3,0.3,2.8-0.6,4.3-2.2c3.9-4,6.3-7.1,6.3-7.1C257.2,142.5,260.3,137.5,259.6,136.8z"/>
	<path class="st0" d="M84.2,82.8c-0.1-0.1-0.2-0.2-0.2-0.2c-0.4-0.3-1.4-0.3-2-0.4C79.7,82,64.7,84,64.5,84.3
		c0,0-9.9,11.2-13.4,15.3c-6.5,7.7-16,14.9-26.8,13c-0.1,0-0.1,0-0.2,0c-4.8-0.9-9.3-3.5-12.6-7C7.1,101,4.9,94.6,5.3,88.3
		C6,76.4,13.1,68.6,24.2,64.2c10.1-4,19.6-5.4,30.2-3.6c2.1,0.4,5.4,2,5.3,4.9c-0.1,3-2.6,4-4.6,4.2c-2.4,0.2-4.4-1.2-4.5-4.5
		c-6.9-1.4-13.4,0-19.5,2.4c-7.3,2.8-12.1,6-15,10.3C16,78,16,78.1,15.9,78.2c-0.7,1.1-4.9,7.8-3.4,16.6c0.7,4.3,2.1,8.2,6.3,10.4
		c4,2.2,8.9,1.9,12.4-0.6c3.2-2.2,8.4-7.8,15.5-15.7c-5.3,1.5-9.6,2.7-14.7,4.2c-0.8,0.3,1.4,1.8,1.7,2c0.8,0.6,1.2,1.8,0.3,2.3
		c-1,0.6-5.5,0-6.5-0.2c-1.9-0.4-3.2-1.8-4.1-3.4c-2.5-4.6,1.1-8,5.5-9.9c9.5-4.1,10.7-3.6,19.9-6.3l10.6-2.8
		c0,0,34.9-47.1,50.1-63.4c0.4-0.5,0.7-1,1.1-1.5c-4.6-5.1-22.4-2.3-30.8,5C71.7,22,63,29.2,73.4,42.2c-10.5-2.8-11.7-15.9-5.2-23.4
		C78.9,6.6,92.5,2.2,108.4,3.2C120,4,124,12.5,119.3,26c-5,14.4-14.6,46.8-14.6,46.8s12.7,1.1,10.9,7.1c-2.1,7.2-15.2,4.2-15.2,4.2
		s-2.2,8.4-2.8,14.2c-1.3,12-3.3,25,4.5,35.2c2.3,3.1,5.3,5.6,8.8,7.3c3.8,1.9,7.4,2.2,11.5,2.7c10,1.3,20.1,0.2,29.9-1.5
		c5.2-0.9,10.3-2,15.4-3.2c16.5-3.7,34.4-8,51.2-4.1c2.5,0.6,4.4,2.4,4.3,4.6c-0.1,2.5-2,4.5-4.6,5.6c-2.7,1.1-2.9-3.7-4.8-4.7
		c-1.2-0.6-2.5-0.8-3.9-0.9c-10-0.8-20,0.6-29.8,2.8c-4.9,1.1-9.8,2.4-14.6,3.8c-6.1,1.7-12.7,2.5-19,3.2
		c-6.8,0.8-13.8,1.2-20.6,0.7c-10.6-0.7-21.3-3.7-29.8-10.2c-4.9-3.7-8.9-8.6-11.4-14.1c-2.6-5.6-1.7-12.1-1.9-18.3
		c-0.2-4.4,0.6-16.6,1-21.1C83.9,85.1,84.4,83.1,84.2,82.8z M103.4,33.3c-3.9,5.3-27.3,36.6-29.7,39.4c4.9-0.3,14.8-0.9,14.8-0.9
		S99.4,42.7,103.4,33.3z"/>
</g>
<path class="st0" d="M187.3,123.5"/>
</svg>
