<svg version="1.1" id="Layer_1" xmlns="http://www.w3.org/2000/svg" x="0" y="0" viewBox="0 0 325.8 171.2" style="enable-background:new 0 0 325.8 171.2" xml:space="preserve"><style>.st0{fill:#d0b23b;stroke:#aa7c00;stroke-width:2.5;stroke-miterlimit:10}</style><path class="st0" d="M180.1 117.4c-2.9-4.2-1.1-10.4 1-14.6 4.2-8.3 7.1-13.2 7.1-13.2s-4.3 1.3-7.1 3.1c-2.1 1.3-4.5 3.1-7.7 7.4-4 5.2-6.7 11.1-11.1 15.9-2.7 3-7.5 4.9-10.7 2.2-3.7-3 .6-6.8 1.6-9.8.3-.8.9-1.6 1.5-2.6-8.6 5.9-15.9 13.3-26.4 14.6-6.4.8-13.1.1-17.7-5.2-3.6-4.1-4.3-9.1-2-14.2s5.5-8.1 11.5-7.9c2.3.1 4.5.9 5.2 3.3.6 1.8-.7 3.1-2 4-1.9 1.3-3.6.8-5.6-.2-.4-.2-1.2-1-1.2-1s-5.1 5.1-4.3 9.1c.8 4.1 3.6 6.3 7.5 6.7 4.1.4 7.3-2 9.8-5 7.3-8.6 1.7-16.5-2-24.1-.9-1.9-1.7-3.7-1.7-6.2 0-3.6 1.7-6.3 2.2-7.1 2.6-3.9 6.6-5.7 8.5-6.5.2-.1 5.8-2.3 11.1-1.6 2.8.3 6.3.8 8.9 3.6 3.1 3.3 2.9 7.6 2.8 8.6-.4 4-2.7 6.6-3.5 7.4-.1-2-.4-4.9-1.4-7.8-.7-1.9-1.4-3.1-2.5-4-.3-.2-.8-.6-1.5-1-2.6-1.3-5.3-.7-6.2-.5-.6.2-5.2 1.3-6.5 4.9-.7 1.9-.3 3.6.3 5.4.8 2.3 2.2 4.3 3.3 6.5 1 1.9 1.9 3.9 2.5 5.9.7 2.1 1.4 3.7 1.5 5.9.1 1.2-.2 3-.7 4.1-.8 2-1.2 3.2-1.2 3.2s7.9-4.8 10.8-7c10.6-8 16-19.7 22.6-30.5C187 52.6 195.2 34.8 209 20.6c4-4.1 9.3-5.6 15.1-4.2 2.6.6 5.9 3.7 6.3 5.9 1.2 8.1-3.1 14.9-8.3 21.2-1.5 1.8-3.1 3.5-4.8 5.1-8.1 7.9-16.7 15-25.1 22.6-1.7 1.5-7.6 9.2-7.6 9.2s3.2-.9 4.4-1.3c2.4-.8 3.6-1 6.2-1.4 2.2-.4 4.4-.2 6 1.6 3.2 3.4.3 7.9-1.6 11.1-2.2 3.6-4.2 7.3-6.1 11-.9 1.6-4.9 10.9-2.7 11.5 2.6.7 5.5-1.7 7.5-3.3.5-.4 4.8-4 5.1-4.5 1.1-2.1 2.4-6 3.6-8 1.7-2.9 3.5-5.8 5.5-8.5 2.2-3 4.5-5.9 7.2-8.5 2.5-2.5 5.3-4.7 8.5-6.3 2.9-1.4 6.1-2.3 9.4-1.9.7.1 1.6.2 2.3.4 3 .8 5.1 3.6 5.9 6.4.2.6.3 1.1.3 1.7 0 1.5-.6 2.9-1.4 4.1-.8 1.3-1.5 2.6-2.5 3.7s-2 2.3-3.1 3.4c-2.1 2.1-4.5 4.1-7.1 5.7-2.6 1.5-5.4 2.6-8.4 2.9-2.6.3-5.3-.1-7.9-.4 0 0-2.5 4.8-3.1 6.8-1 3.5-2 5.4 1.9 8.1 2 1.4 5 1.2 7.2.1 4.8-2.6 9.6-5.3 13.8-8.7 2.1-1.7 4-3.1 5.9-5 1.8-1.9 3.5-4.6 5-6.7 1.6-2.1 3.1-4.3 4.5-6.6.7-1.1 6.8-10.9 9.3-11.8 1.9-.7 3.5-.8 5.5-1 1.5-.1 3.5-.2 4.7.8 1.7 1.4.5 3.3-.4 4.8-6.2 10.6-12.1 19.1-16.5 30.6-.4 1-.7 2.3.1 3.1.9.8 2.4.3 3.5-.4 14.1-8.6 19.3-22.8 28.1-35.9 1-1.4 5.4-2.7 9.7-2.8 2.1-.1 5.5.2 6 .9.6.6-.6 3.4-1.1 4.2-3.5 5.9-23.7 42.6-23.7 42.6s11.5-5.2 16.5-8.9c8.4-6.4 15.7-13.6 20.8-23 3-5.5-2.3-6.9-3.6-10.2-1.2-3-1.7-5.7.5-8.3 2.1-2.4 5-2.4 7.3-1.4 2.8 1.2 4.2 4 4.2 7.2-.2 15.8-10.7 25.8-21.5 35.4-7.6 6.7-16.2 11.9-25.8 15.9-5.4 2.3-6.4 9.2-9.1 14.2-4.3 7.7-8.4 15.6-16.3 20.4-5.7 3.4-12 4.7-16.9-.9-4.4-5.1-.8-14.4 5.9-19.2 9.5-6.8 17.9-12.7 21.5-17.4 1.9-2.5 3.9-5.1 3.9-5.1 1.2-1.7 2.2-3.1 2.9-4.2-.9.6-1.8 1.3-2.7 1.9-1 .7-2 1.3-3 1.9-.9.5-2.3 1.2-4.1 1.6-3 .6-5.3.1-7-.1-1.6-.2-4.7-.6-6.7-2.9-.7-.7-1.1-1.6-1.5-2.5-1.2-3.5-1-7.9-1-7.9s-3.4 2.4-4.4 3.1c-1.9 1.4-3.8 2.9-5.8 4.1-3.8 2.4-8 4.4-12.6 4.6-2.4.1-4.8-.2-7.2-.9-1-.3-2.4-.8-3.7-2-1.1-1.1-1.6-2.7-2.1-4.1-.2-.6-.4-1.2-.5-1.8-.1-.3-.1-.5-.4-.2-.5.4-.9.8-1.3 1.3-1.1 1.2-2.6 2.7-4.7 4.1-1.9 1.3-4.3 2.9-7.8 3.3-1.3.2-3.5.2-6.1-.6-1.1-.5-2.6-1.3-3.7-2.9zM220 25.2c-1.3 1-9.7 11.1-13.6 15.8-1.7 2-6.8 7.8-10 12.2-1.8 2.5-4.2 5.4-3.9 6 .3.6 1.1 1 1.7 1 2.5.2 23.4-21.3 27.9-30.3 1.1-2.4 1.7-6.7-2.1-4.7zm-.7 66.8s1.7.3 1.8.3c1.2.1 2.3.1 3.5-.3 2.4-.7 4.5-2.1 6.3-3.7 1.9-1.8 3.5-3.9 5.1-6 .9-1.3 2.4-3.5 1-5-1.3-1.4-3.8.2-5 1-1.7 1.1-2.5 1.9-4 3.2-3.4 3-6.6 6.6-8.7 10.5zm40.3 44.8c-1.6-1.6-23.2 13.7-21.1 20.1 0 .1.7 2.1 2.2 2.5 1.3.3 2.8-.6 4.3-2.2 3.9-4 6.3-7.1 6.3-7.1 5.9-7.6 9-12.6 8.3-13.3z"/><path class="st0" d="m84.2 82.8-.2-.2c-.4-.3-1.4-.3-2-.4-2.3-.2-17.3 1.8-17.5 2.1 0 0-9.9 11.2-13.4 15.3-6.5 7.7-16 14.9-26.8 13h-.2c-4.8-.9-9.3-3.5-12.6-7-4.4-4.6-6.6-11-6.2-17.3.7-11.9 7.8-19.7 18.9-24.1 10.1-4 19.6-5.4 30.2-3.6 2.1.4 5.4 2 5.3 4.9-.1 3-2.6 4-4.6 4.2-2.4.2-4.4-1.2-4.5-4.5-6.9-1.4-13.4 0-19.5 2.4-7.3 2.8-12.1 6-15 10.3-.1.1-.1.2-.2.3-.7 1.1-4.9 7.8-3.4 16.6.7 4.3 2.1 8.2 6.3 10.4 4 2.2 8.9 1.9 12.4-.6 3.2-2.2 8.4-7.8 15.5-15.7-5.3 1.5-9.6 2.7-14.7 4.2-.8.3 1.4 1.8 1.7 2 .8.6 1.2 1.8.3 2.3-1 .6-5.5 0-6.5-.2-1.9-.4-3.2-1.8-4.1-3.4-2.5-4.6 1.1-8 5.5-9.9 9.5-4.1 10.7-3.6 19.9-6.3l10.6-2.8s34.9-47.1 50.1-63.4c.4-.5.7-1 1.1-1.5-4.6-5.1-22.4-2.3-30.8 5C71.7 22 63 29.2 73.4 42.2c-10.5-2.8-11.7-15.9-5.2-23.4C78.9 6.6 92.5 2.2 108.4 3.2 120 4 124 12.5 119.3 26c-5 14.4-14.6 46.8-14.6 46.8s12.7 1.1 10.9 7.1c-2.1 7.2-15.2 4.2-15.2 4.2s-2.2 8.4-2.8 14.2c-1.3 12-3.3 25 4.5 35.2 2.3 3.1 5.3 5.6 8.8 7.3 3.8 1.9 7.4 2.2 11.5 2.7 10 1.3 20.1.2 29.9-1.5 5.2-.9 10.3-2 15.4-3.2 16.5-3.7 34.4-8 51.2-4.1 2.5.6 4.4 2.4 4.3 4.6-.1 2.5-2 4.5-4.6 5.6-2.7 1.1-2.9-3.7-4.8-4.7-1.2-.6-2.5-.8-3.9-.9-10-.8-20 .6-29.8 2.8-4.9 1.1-9.8 2.4-14.6 3.8-6.1 1.7-12.7 2.5-19 3.2-6.8.8-13.8 1.2-20.6.7-10.6-.7-21.3-3.7-29.8-10.2-4.9-3.7-8.9-8.6-11.4-14.1-2.6-5.6-1.7-12.1-1.9-18.3-.2-4.4.6-16.6 1-21.1.1-1 .6-3 .4-3.3zm19.2-49.5c-3.9 5.3-27.3 36.6-29.7 39.4 4.9-.3 14.8-.9 14.8-.9s10.9-29.1 14.9-38.5z"/></svg>